<svg width="64" height="64" viewBox="0 0 64 64" fill="none" xmlns="http://www.w3.org/2000/svg">
<rect width="64" height="64" fill="#F5F5F5"/>
<rect width="64" height="64" fill="#1E1E1E"/>
<path d="M27.4124 44.2768C20.5788 43.4542 15.7657 38.5708 15.7657 32.2461C15.7657 29.6761 16.6965 26.8987 18.2501 25.0461C17.5776 23.3514 17.6803 19.7514 18.4588 18.2607C20.5291 18.004 23.3215 19.0834 24.9778 20.5741C26.9454 19.9587 29.0157 19.6494 31.5531 19.6494C34.0871 19.6494 36.1574 19.9587 38.0224 20.5214C39.6256 19.0834 42.4743 18.004 44.5447 18.2607C45.2668 19.6494 45.3728 23.2461 44.697 24.9967C46.3533 26.9481 47.2344 29.5708 47.2344 32.2461C47.2344 38.5708 42.4213 43.3521 35.485 44.2242C37.2439 45.3562 38.4331 47.8242 38.4331 50.6542V56.0015C38.4331 57.5416 39.7283 58.4169 41.2818 57.8015C50.6496 54.2509 58 44.9415 58 33.4242C58 18.8794 46.0949 7 31.4471 7C16.8025 7 5.0001 18.8794 5.0001 33.4275C4.98519 38.7535 6.62158 43.9549 9.68682 48.3247C12.7521 52.6945 17.0975 56.0206 22.1323 57.8509C23.5302 58.3642 24.8751 57.4395 24.8751 56.0509V51.9375C24.1496 52.2468 23.2188 52.4509 22.3907 52.4509C18.9755 52.4509 16.9582 50.6015 15.5073 47.1562C14.9376 45.7675 14.3148 44.9448 13.1256 44.7902C12.5062 44.7408 12.2975 44.4841 12.2975 44.1748C12.2975 43.5562 13.3343 43.0955 14.3678 43.0955C15.8684 43.0955 17.1636 44.0202 18.5085 45.9255C19.5453 47.4128 20.6284 48.0808 21.9236 48.0808C23.2188 48.0808 24.0469 47.6202 25.2361 46.4355C26.1172 45.5635 26.793 44.7902 27.4124 44.2768Z" fill="#B3B3B3"/>
</svg>
